<?xml version="1.0" encoding="UTF-8" standalone="no"?>
<svg id="svg3035" xmlns:rdf="http://www.w3.org/1999/02/22-rdf-syntax-ns#" xmlns="http://www.w3.org/2000/svg" height="100pt" width="100pt" version="1.0" preserveAspectRatio="xMidYMid meet" xmlns:cc="http://creativecommons.org/ns#" xmlns:dc="http://purl.org/dc/elements/1.1/" viewBox="0 0 100.000000 100.000000">
 <metadata id="metadata3037">Created by potrace 1.11, written by Peter Selinger 2001-2013
  <rdf:RDF>
   <cc:Work rdf:about="">
    <dc:format>image/svg+xml</dc:format>
    <dc:type rdf:resource="http://purl.org/dc/dcmitype/StillImage"/>
    <dc:title/>
   </cc:Work>
  </rdf:RDF>
 </metadata>
 <g id="g3039" stroke="none" transform="translate(0.000000,100.000000) scale(0.100000,-0.100000)" fill="#000">
  <path id="path3041" d="M494,980c-127-19-232-117-285-265-39-112-39-110-14-147,26-39,36-110,23-176-8-45,3-131,32-242,11-40,47-83,88-104,34-17,197-27,231-14,26,9,110,86,111,101,0,4,11,24,24,45,14,20,32,62,41,92,10,30,25,73,35,95s20,48,23,58c4,9,14,17,24,17s29,12,42,25c13,14,19,25,13,25-5,0-8,24-5,58,6,87,4,144-6,172-5,14-12,37-15,52-8,34-154,177-204,200-40,18-78,20-158,8zm-107-339c43-43,108-60,158-41,16,6,31,7,34,3s30-16,60-27c50-17,56-17,66-2,16,22,28,20,43-5,20-32,7-116-37-234-28-77-42-103-63-114-24-14-28-14-45,1-23,21-118,35-128,19-12-20,16-41,56-41,52,0,57-16,18-56-24-25-42-34-65-34-18,0-36,5-39,11-4,6-21,9-38,7-26-2-35,3-54,31-27,40-27,41-9,67,14,18,16,18,44,2,28-17,30-17,47,2,15,16,15,22,5,35-17,20-98,20-121-1-16-14-19-13-38,7-23,25-24,37-21,193,2,100,7,125,38,184,22,42,43,41,89-7z"/>
 </g>
 <path id="path3049" stroke-linejoin="miter" d="m53.348,63.919a2.9796,3.4762,0,1,1,-5.9591,0,2.9796,3.4762,0,1,1,5.9591,0z" fill-rule="evenodd" transform="matrix(0.59054434,0,0,0.55516045,11.060834,14.912063)" stroke="#000" stroke-linecap="butt" stroke-width="1px" fill="#F00"/>
 <path id="path3051" stroke-linejoin="miter" d="m83.854,73.354a5.8882,5.8173,0,1,1,-11.776,0,5.8882,5.8173,0,1,1,11.776,0z" fill-rule="evenodd" transform="matrix(0.8,0,0,0.8,-2.6106697,-4.0862656)" stroke="#000" stroke-linecap="butt" stroke-width="1px" fill="#F00"/>
</svg>
